<?xml version='1.0' encoding='utf-8'?>
<svg xmlns="http://www.w3.org/2000/svg" width="24" height="24" viewBox="0 0 24 24" fill="none" stroke="#334155" stroke-width="1.6" stroke-linecap="round" stroke-linejoin="round">
  <line x1="6" y1="6" x2="6" y2="20" stroke="#334155" stroke-width="1.6" stroke-linecap="round" stroke-linejoin="round" />
  <line x1="18" y1="6" x2="18" y2="20" stroke="#334155" stroke-width="1.6" stroke-linecap="round" stroke-linejoin="round" />
  <line x1="4" y1="6" x2="8" y2="6" stroke="#334155" stroke-width="1.6" stroke-linecap="round" stroke-linejoin="round" />
  <line x1="16" y1="6" x2="20" y2="6" stroke="#334155" stroke-width="1.6" stroke-linecap="round" stroke-linejoin="round" />
  <path d="M6 6 C10 3 14 3 18 6" stroke="#334155" stroke-width="1.6" stroke-linecap="round" stroke-linejoin="round" />
  
  <line x1="10" y1="6" x2="10" y2="12" stroke="#334155" stroke-width="1.6" stroke-linecap="round" stroke-linejoin="round" />
  <line x1="14" y1="6" x2="14" y2="12" stroke="#334155" stroke-width="1.6" stroke-linecap="round" stroke-linejoin="round" />
<g id="nodes" fill="#3B82F6" stroke="#ffffff" stroke-width="0.8"><circle cx="6.0" cy="6.0" r="1.08" fill="#3B82F6" stroke="#ffffff" stroke-width="0.8" /><circle cx="6.0" cy="20.0" r="1.08" fill="#3B82F6" stroke="#ffffff" stroke-width="0.8" /><circle cx="18.0" cy="6.0" r="1.08" fill="#3B82F6" stroke="#ffffff" stroke-width="0.8" /><circle cx="18.0" cy="20.0" r="1.08" fill="#3B82F6" stroke="#ffffff" stroke-width="0.8" /><circle cx="4.0" cy="6.0" r="1.08" fill="#3B82F6" stroke="#ffffff" stroke-width="0.8" /><circle cx="8.0" cy="6.0" r="1.08" fill="#3B82F6" stroke="#ffffff" stroke-width="0.8" /><circle cx="16.0" cy="6.0" r="1.08" fill="#3B82F6" stroke="#ffffff" stroke-width="0.8" /><circle cx="20.0" cy="6.0" r="1.08" fill="#3B82F6" stroke="#ffffff" stroke-width="0.8" /><circle cx="10.0" cy="6.0" r="1.08" fill="#3B82F6" stroke="#ffffff" stroke-width="0.8" /><circle cx="10.0" cy="12.0" r="1.08" fill="#3B82F6" stroke="#ffffff" stroke-width="0.8" /><circle cx="14.0" cy="6.0" r="1.08" fill="#3B82F6" stroke="#ffffff" stroke-width="0.8" /><circle cx="14.0" cy="12.0" r="1.08" fill="#3B82F6" stroke="#ffffff" stroke-width="0.8" /></g></svg>