<?xml version='1.0' encoding='utf-8'?>
<svg xmlns="http://www.w3.org/2000/svg" width="24" height="24" viewBox="0 0 24 24" fill="none" stroke="#334155" stroke-width="1.6" stroke-linecap="round" stroke-linejoin="round">
  <rect x="4" y="10" width="16" height="4" rx="1" stroke="#334155" stroke-width="1.6" stroke-linecap="round" stroke-linejoin="round" />
  <line x1="6" y1="12" x2="6" y2="14" stroke="#334155" stroke-width="1.6" stroke-linecap="round" stroke-linejoin="round" />
  <line x1="8" y1="12" x2="8" y2="14" stroke="#334155" stroke-width="1.6" stroke-linecap="round" stroke-linejoin="round" />
  <line x1="10" y1="12" x2="10" y2="14" stroke="#334155" stroke-width="1.6" stroke-linecap="round" stroke-linejoin="round" />
  <line x1="12" y1="12" x2="12" y2="14" stroke="#334155" stroke-width="1.6" stroke-linecap="round" stroke-linejoin="round" />
  <line x1="14" y1="12" x2="14" y2="14" stroke="#334155" stroke-width="1.6" stroke-linecap="round" stroke-linejoin="round" />
  <line x1="16" y1="12" x2="16" y2="14" stroke="#334155" stroke-width="1.6" stroke-linecap="round" stroke-linejoin="round" />
  <line x1="18" y1="12" x2="18" y2="14" stroke="#334155" stroke-width="1.6" stroke-linecap="round" stroke-linejoin="round" />
<g id="nodes" fill="#3B82F6" stroke="#ffffff" stroke-width="0.8"><circle cx="6.0" cy="12.0" r="1.08" fill="#3B82F6" stroke="#ffffff" stroke-width="0.8" /><circle cx="6.0" cy="14.0" r="1.08" fill="#3B82F6" stroke="#ffffff" stroke-width="0.8" /><circle cx="8.0" cy="12.0" r="1.08" fill="#3B82F6" stroke="#ffffff" stroke-width="0.8" /><circle cx="8.0" cy="14.0" r="1.08" fill="#3B82F6" stroke="#ffffff" stroke-width="0.8" /><circle cx="10.0" cy="12.0" r="1.08" fill="#3B82F6" stroke="#ffffff" stroke-width="0.8" /><circle cx="10.0" cy="14.0" r="1.08" fill="#3B82F6" stroke="#ffffff" stroke-width="0.8" /><circle cx="12.0" cy="12.0" r="1.08" fill="#3B82F6" stroke="#ffffff" stroke-width="0.8" /><circle cx="12.0" cy="14.0" r="1.08" fill="#3B82F6" stroke="#ffffff" stroke-width="0.8" /><circle cx="14.0" cy="12.0" r="1.08" fill="#3B82F6" stroke="#ffffff" stroke-width="0.8" /><circle cx="14.0" cy="14.0" r="1.08" fill="#3B82F6" stroke="#ffffff" stroke-width="0.8" /><circle cx="16.0" cy="12.0" r="1.08" fill="#3B82F6" stroke="#ffffff" stroke-width="0.8" /><circle cx="16.0" cy="14.0" r="1.08" fill="#3B82F6" stroke="#ffffff" stroke-width="0.8" /><circle cx="18.0" cy="12.0" r="1.08" fill="#3B82F6" stroke="#ffffff" stroke-width="0.8" /><circle cx="18.0" cy="14.0" r="1.08" fill="#3B82F6" stroke="#ffffff" stroke-width="0.8" /></g></svg>